<svg width="200" height="62" viewBox="0 0 200 62" fill="none" xmlns="http://www.w3.org/2000/svg">
<path d="M30.534 0.606173C29.9026 0.934517 29.3975 1.31337 29.3975 1.46492C29.3975 1.61646 29.2964 1.84378 29.1701 1.97006C29.0439 2.09635 29.0186 2.04583 29.1196 1.84378C29.2207 1.69223 29.1954 1.54069 29.0439 1.54069C28.5387 1.54069 27.3011 3.40972 25.7604 6.46584C24.0935 9.82505 23.2347 11.0374 22.3002 11.391C21.9971 11.5173 19.0925 11.6436 15.8343 11.6688C12.6014 11.6941 9.26748 11.8204 8.45925 11.9467C6.81753 12.1992 3.91295 13.5379 4.14026 13.9167C4.21604 14.043 4.14026 14.0935 3.93821 14.0177C3.45832 13.8409 1.8166 15.71 1.08414 17.3012C-0.00191647 19.6754 -0.0524309 20.3826 0.0233407 36.5472L0.0991123 51.9288L0.806314 53.4442C1.71557 55.4143 3.20575 56.9045 5.1253 57.7885C6.56496 58.4452 6.86804 58.4957 9.94942 58.4704C12.6519 58.4704 13.738 58.3441 16.0111 57.7885C21.694 56.3741 29.8268 53.4947 34.7267 51.1711C37.9344 49.6557 41.9755 47.0794 41.723 46.6753C41.6472 46.549 41.6977 46.4985 41.8493 46.5995C42.0008 46.6753 42.8343 46.1702 43.7183 45.4377L45.3095 44.0991L44.2992 44.0486C39.1973 43.7455 34.5752 42.9372 30.7614 41.6996C27.9831 40.7904 23.4115 38.6183 21.4667 37.3049C20.7342 36.7997 20.0776 36.3956 20.027 36.3956C19.9765 36.3956 19.926 36.9765 19.926 37.6585C19.926 39.2497 20.5322 42.3816 21.2141 44.2254C22.2244 47.0036 24.5481 50.1103 26.6444 51.4994C27.5537 52.1056 25.129 51.651 23.5378 50.9185C20.5322 49.5546 18.0822 45.7913 17.0972 41.0177C16.39 37.5575 16.5415 32.5565 17.5013 28.97C18.7642 24.1206 21.5172 19.5491 25.3058 16.0131C30.332 11.3657 35.5855 9.21888 42.809 8.94105C52.4825 8.56219 59.7819 11.29 65.9446 17.6043C69.2786 21.0392 71.4507 24.9794 72.6125 29.7277C73.547 33.4405 73.5976 39.0476 72.7893 42.6089C71.678 47.4078 69.0008 52.0551 65.1869 55.8437C63.8483 57.157 62.7875 58.3189 62.8127 58.4199C62.838 58.5209 62.7117 58.5462 62.5349 58.4957C62.3834 58.4199 61.954 58.5967 61.6004 58.8745L60.969 59.3797L69.6827 59.3039C78.2196 59.2281 78.4217 59.2281 79.8866 58.622C81.8567 57.8137 84.1046 55.7426 85.0138 53.8736L85.721 52.4339L85.7968 37.1533C85.8726 26.5958 85.7968 21.3676 85.5947 20.231C85.2916 18.4378 84.1046 16.0131 83.5994 16.1393C83.4226 16.1646 83.3468 16.0888 83.4226 15.9625C83.852 15.2806 80.9727 13.159 78.4469 12.3508C77.1083 11.8961 75.9465 11.7951 70.5162 11.6688C64.606 11.5173 64.1009 11.492 63.4442 10.9869C62.5854 10.3302 61.7267 9.06733 60.4386 6.59213C59.0999 3.94012 58.3422 2.75303 58.0644 2.92984C57.9381 3.00561 57.7613 2.92984 57.6603 2.77829C57.5592 2.57623 57.5845 2.55098 57.7613 2.65201C57.9381 2.75303 58.0644 2.72778 58.0644 2.60149C58.0644 2.24789 57.0288 1.38915 55.7912 0.757716L54.6547 0.151543L43.1626 0.0757718L31.6706 1.76951e-07L30.534 0.606173ZM77.3861 16.1646C79.4825 17.1244 81.2252 19.9532 80.5938 21.3676C80.2655 22.0495 79.1541 22.4536 78.5732 22.1C78.3712 21.9738 78.0176 21.3423 77.7903 20.7362C77.3356 19.5238 75.9465 18.463 74.7594 18.463C74.0269 18.463 72.9661 17.5538 72.9661 16.9223C72.9661 15.7352 75.4919 15.3059 77.3861 16.1646ZM0.402199 25.7118C0.351684 26.1159 0.30117 25.7876 0.30117 25.0299C0.30117 24.2722 0.351684 23.9438 0.402199 24.3227C0.452713 24.7268 0.452713 25.333 0.402199 25.7118ZM0.402199 28.1113C0.326427 28.3133 0.250656 28.2375 0.250656 27.9597C0.225398 27.6819 0.30117 27.5303 0.376942 27.6314C0.452713 27.7071 0.47797 27.9345 0.402199 28.1113ZM0.402199 33.9204C0.351684 34.6529 0.326427 34.072 0.326427 32.607C0.326427 31.1421 0.351684 30.5612 0.402199 31.2684C0.452713 32.0009 0.452713 33.2132 0.402199 33.9204ZM0.402199 36.4461C0.326427 36.6229 0.275913 36.4967 0.275913 36.1431C0.275913 35.7894 0.326427 35.6632 0.402199 35.8147C0.452713 35.9915 0.452713 36.2946 0.402199 36.4461ZM0.402199 38.2141C0.351684 38.5425 0.30117 38.3404 0.30117 37.7848C0.275913 37.2291 0.326427 36.9765 0.402199 37.2039C0.452713 37.4564 0.452713 37.9111 0.402199 38.2141ZM0.402199 41.7501C0.351684 42.0785 0.30117 41.8764 0.30117 41.3208C0.275913 40.7651 0.326427 40.5125 0.402199 40.7399C0.452713 40.9924 0.452713 41.4471 0.402199 41.7501ZM62.7875 59.0261C62.7117 59.1018 62.4844 59.1271 62.3076 59.0513C62.1055 58.9756 62.1813 58.8998 62.4591 58.8998C62.737 58.8745 62.8885 58.9503 62.7875 59.0261Z" fill="#1C7FF0"/>
<path d="M12.049 7.57857C11.5186 7.6796 10.8619 7.98269 10.5841 8.23526C9.95264 8.79092 9.90212 10.2558 10.483 10.4831C11.1902 10.761 19.6261 10.66 19.8029 10.3569C20.1313 9.85172 19.6514 8.36155 19.0705 7.98269C18.3885 7.52806 13.5392 7.25023 12.049 7.57857ZM18.338 8.00794C18.2623 8.08372 18.0349 8.10897 17.8581 8.0332C17.6561 7.95743 17.7319 7.88166 18.0097 7.88166C18.2875 7.8564 18.4391 7.93217 18.338 8.00794ZM16.3175 10.2811C16.2417 10.3569 16.0144 10.3821 15.8376 10.3063C15.6355 10.2306 15.7113 10.1548 15.9891 10.1548C16.2669 10.1295 16.4185 10.2053 16.3175 10.2811Z" fill="#1C7FF0"/>
<path d="M39.6256 12.3002C36.4684 12.8559 36.6705 12.5781 35.938 16.9476C35.054 22.2263 35.8623 30.5612 37.5292 33.3647L37.9586 34.0972L38.7163 32.607C40.9642 28.2375 45.5358 23.5397 50.3346 20.6351C52.431 19.3723 57.1541 17.4022 59.3262 16.8971C60.5133 16.6192 60.5891 16.5687 60.1597 16.2404C59.1747 15.4826 55.7144 13.8914 55.3608 14.0177C55.1588 14.0935 55.0577 14.0682 55.1335 13.942C55.3103 13.6641 52.2037 12.7549 49.3749 12.275C46.6724 11.8204 42.2271 11.8204 39.6256 12.3002Z" fill="#1C7FF0"/>
<path d="M31.7986 14.8772C29.4244 16.3168 25.5348 20.2064 23.8426 22.7574C22.2514 25.1821 21.3421 27.3542 20.6602 30.3093L20.1045 32.7087L20.9632 33.4159C22.9333 35.0829 27.4038 37.6086 30.0811 38.5684C33.0109 39.6292 38.3402 41.0436 38.5675 40.8163C38.6433 40.7405 38.416 40.3617 38.0624 39.9828C37.7088 39.604 37.1026 38.821 36.7237 38.2401C36.3449 37.6339 35.9155 37.2298 35.764 37.3308C35.6377 37.4066 35.5872 37.3561 35.6882 37.2045C35.9155 36.8509 35.3346 35.6133 35.0062 35.8154C34.8547 35.8911 34.8294 35.8406 34.9305 35.6891C35.0315 35.5375 34.8294 34.7546 34.4758 33.9211C32.9857 30.4103 32.6826 28.5918 32.6826 23.1363C32.6826 18.5647 32.7331 17.8828 33.2887 15.9885C33.6171 14.8266 33.8444 13.8669 33.7939 13.8164C33.7434 13.7658 32.8341 14.2457 31.7986 14.8772Z" fill="#1C7FF0"/>
<path d="M59.9609 19.4733C54.6569 21.317 50.3127 23.8933 46.221 27.6061C45.1602 28.5659 44.7813 29.0457 45.0844 29.0205C45.7916 28.9952 49.6055 29.5509 51.626 29.9803C57.3089 31.2179 64.3304 34.4255 68.5231 37.709C69.2051 38.2394 69.8617 38.6687 69.9628 38.6687C70.3416 38.6687 70.2153 34.3245 69.786 32.1019C69.0283 28.1112 67.336 24.3732 64.7093 20.9382C62.7392 18.3367 62.9413 18.4125 59.9609 19.4733Z" fill="#1C7FF0"/>
<path d="M99.3561 19.954C97.7397 20.6612 97.2851 22.9344 98.4974 24.172C99.836 25.5106 102.539 25.0812 103.296 23.4142C103.7 22.5555 103.372 21.1916 102.64 20.4844C101.983 19.8782 100.215 19.5751 99.3561 19.954Z" fill="#1C7FF0"/>
<path d="M178.892 19.9529C178.589 20.0792 178.109 20.5086 177.781 20.9127C177.049 21.8472 177.2 23.3122 178.135 24.2467C178.69 24.8023 179.044 24.9034 180.18 24.9034C181.342 24.9034 181.671 24.8023 182.252 24.1962C183.237 23.2364 183.262 21.5441 182.302 20.5844C181.57 19.8519 179.852 19.5488 178.892 19.9529Z" fill="#1C7FF0"/>
<path d="M167.885 23.0345C167.506 23.2366 167.43 23.6407 167.43 25.2824V27.303H166.546C165.511 27.303 165.157 27.8081 165.157 29.273C165.157 30.3591 165.41 30.5864 166.698 30.5864H167.43V35.0569C167.43 39.7043 167.557 40.7903 168.011 40.5125C168.163 40.4115 168.188 40.4872 168.062 40.664C167.784 41.1187 169.097 42.3815 170.385 42.8614C171.825 43.4171 175.033 43.2403 175.765 42.5836C176.321 42.0784 176.422 40.9419 176.018 40.1589C175.791 39.78 175.462 39.679 174.25 39.679C172.027 39.679 171.876 39.3507 171.775 34.4508L171.674 30.5864H173.543C174.553 30.5864 175.563 30.4601 175.765 30.3338C176.245 30.0308 176.245 28.2627 175.791 27.7071C175.538 27.404 175.008 27.303 173.644 27.303H171.825L171.775 25.3329C171.724 23.868 171.598 23.3123 171.295 23.0598C170.79 22.7062 168.491 22.6556 167.885 23.0345ZM175.437 27.7071C175.361 27.7829 175.134 27.8081 174.957 27.7323C174.755 27.6566 174.831 27.5808 175.109 27.5808C175.386 27.5555 175.538 27.6313 175.437 27.7071Z" fill="#1C7FF0"/>
<path d="M110.349 27.2769C108.101 28.0094 106.434 29.4743 105.449 31.5707C105.02 32.5052 104.919 33.2124 104.919 35.2582C104.919 37.5061 104.995 37.9355 105.601 39.072C106.384 40.5875 107.52 41.6483 109.238 42.4818C111.663 43.6436 116.967 43.391 118.583 42.0019C119.492 41.2442 119.745 40.5622 119.391 39.8298C119.24 39.4762 119.012 39.1731 118.886 39.1731C118.76 39.1731 118.735 39.2994 118.836 39.4762C118.937 39.653 118.911 39.6782 118.709 39.5772C118.558 39.4762 118.482 39.2741 118.558 39.1478C118.886 38.6427 117.825 38.6174 116.714 39.1226C113.557 40.537 110.45 39.754 109.617 37.3798L109.364 36.6474H114.087C119.189 36.6474 120.048 36.5463 119.846 35.9654C119.77 35.7633 119.795 35.6876 119.922 35.7633C120.528 36.1169 120.25 31.899 119.593 30.6361C118.305 28.1357 116.689 27.2264 113.38 27.1254C112.067 27.1001 110.703 27.1506 110.349 27.2769ZM114.365 30.6614C115.098 31.0403 115.805 32 116.007 32.9093L116.158 33.6165H112.749H109.314L109.49 33.0356C109.718 32.2779 110.526 31.1665 111.183 30.7119C111.839 30.2573 113.532 30.232 114.365 30.6614ZM105.222 35.435C105.146 35.6371 105.07 35.5613 105.07 35.2835C105.045 35.0056 105.121 34.8541 105.197 34.9551C105.273 35.0309 105.298 35.2582 105.222 35.435Z" fill="#1C7FF0"/>
<path d="M126.639 27.2286C124.492 27.7085 124.164 27.86 124.518 28.1126C124.796 28.3147 124.77 28.3399 124.417 28.2136C123.836 28.0368 122.623 28.643 122.118 29.3755C121.765 29.8554 121.714 31.194 121.714 39.049C121.714 49.657 121.638 49.2781 123.886 49.2781C126.235 49.2781 126.26 49.2276 126.26 45.7169C126.26 42.9133 126.286 42.6607 126.715 42.8376C126.942 42.9386 128.18 43.0649 129.418 43.1406C132.095 43.2922 133.838 42.7618 135.505 41.3474C137.096 39.9835 137.727 38.4681 137.828 35.5887C137.955 32.4568 137.525 30.9919 135.883 29.3249C134.242 27.658 132.524 27.0518 129.468 27.0771C128.18 27.1023 126.917 27.1528 126.639 27.2286ZM131.489 31.093C132.726 31.8507 133.156 32.6842 133.282 34.7047C133.484 38.0134 132.095 39.6804 129.165 39.6804C127.852 39.6804 127.498 39.5794 126.917 39.049C126.26 38.4428 126.26 38.3923 126.26 35.0836C126.286 30.7899 126.361 30.6888 129.291 30.6131C130.251 30.5878 130.933 30.7394 131.489 31.093ZM133.762 36.0686C133.686 36.3212 133.636 36.1697 133.636 35.7655C133.636 35.3362 133.686 35.1594 133.762 35.3109C133.812 35.4877 133.812 35.8413 133.762 36.0686Z" fill="#1C7FF0"/>
<path d="M144.446 27.2033C142.906 27.4558 140.835 28.1883 140.279 28.7187L139.647 29.2996V35.4371C139.647 42.888 139.622 42.8122 141.845 42.9133C144.169 43.0143 144.194 42.989 144.194 36.7252C144.194 30.714 144.118 30.8403 147.023 30.8403C148.993 30.8403 149.321 30.5372 149.195 28.744C149.144 27.9105 148.993 27.6326 148.487 27.3801C147.907 27.077 145.886 27.0012 144.446 27.2033Z" fill="#1C7FF0"/>
<path d="M154.137 27.6314C151.182 29.0458 149.692 31.4453 149.541 35.0065C149.49 36.4967 149.541 36.9261 149.743 36.6483C149.945 36.3452 149.97 36.4209 149.844 36.9766C149.591 38.1132 150.804 40.26 152.395 41.4724C154.112 42.7605 155.602 43.2151 158.204 43.2151C162.725 43.2151 165.225 41.3966 163.609 39.3003C162.978 38.5173 162.725 38.5425 160.149 39.4518C158.734 39.9569 158.431 39.9822 157.219 39.7044C156.411 39.5276 155.653 39.1487 155.299 38.7951C154.971 38.4668 154.617 38.2395 154.466 38.3405C154.314 38.4163 154.289 38.3657 154.39 38.2142C154.466 38.0627 154.441 37.6585 154.289 37.3049L154.036 36.6483H158.785C164.872 36.6483 164.771 36.6735 164.771 33.9962C164.771 32.0009 164.291 30.2077 163.862 30.4855C163.735 30.5613 163.71 30.4602 163.76 30.2834C163.937 29.8288 162.523 28.4144 161.26 27.7325C160.477 27.3283 159.644 27.1768 157.825 27.1263C155.703 27.0253 155.274 27.101 154.137 27.6314ZM159.088 30.7128C159.871 31.1169 160.275 31.6978 160.603 32.8849L160.831 33.6174H157.446H154.036L154.289 32.9607C155.173 30.637 157.143 29.7025 159.088 30.7128Z" fill="#1C7FF0"/>
<path d="M188.743 27.4278C187.152 27.7814 185.131 28.6654 184.803 29.1706C184.45 29.6757 184.576 41.4961 184.929 42.2033C185.207 42.759 185.435 42.8347 186.849 42.9105C187.809 42.961 188.566 42.86 188.794 42.6832C189.072 42.4559 189.147 41.3446 189.147 37.0003V31.5953L189.981 31.0901C190.966 30.484 192.911 30.4335 193.946 30.9639C195.361 31.6963 195.563 32.4793 195.714 37.7328C195.815 41.5719 195.916 42.5316 196.219 42.7084C196.775 43.0621 199.351 43.0115 199.705 42.6579C200.134 42.2286 200.084 32.3025 199.629 31.0901C199.452 30.6103 199.2 30.2314 199.048 30.2567C198.897 30.3072 198.821 30.1809 198.897 30.0041C199.099 29.4737 197.356 28.034 195.967 27.5541C194.35 26.9985 190.89 26.948 188.743 27.4278ZM188.819 38.2127C188.743 38.4147 188.667 38.339 188.667 38.0611C188.642 37.7833 188.718 37.6318 188.794 37.7328C188.87 37.8086 188.895 38.0359 188.819 38.2127Z" fill="#1C7FF0"/>
<path d="M98.7311 27.5556C98.4028 27.7576 98.327 29.1215 98.226 36.5219L98.0997 45.2608L97.4683 45.7407C97.0894 46.0438 96.4327 46.2459 95.776 46.2459C94.4121 46.2459 93.6797 46.9026 93.6797 48.1149C93.6797 49.403 94.5889 50.0345 96.458 50.0345C98.4533 50.0345 100.045 49.4283 101.105 48.2665C102.646 46.549 102.772 45.6902 102.772 36.2693C102.772 30.1065 102.697 27.8334 102.469 27.6061C102.116 27.2525 99.2868 27.202 98.7311 27.5556ZM98.6554 37.9615C98.6048 38.2899 98.5543 38.0373 98.5543 37.4059C98.5543 36.7744 98.6048 36.5219 98.6554 36.8249C98.7059 37.1533 98.7059 37.6584 98.6554 37.9615Z" fill="#1C7FF0"/>
<path d="M178.19 27.7066C177.837 28.035 177.786 29.0453 177.786 34.9555C177.786 43.164 177.736 42.962 180.16 42.962C181.044 42.962 181.853 42.8357 182.029 42.6589C182.257 42.4316 182.333 40.4363 182.333 35.2333C182.333 26.9742 182.434 27.3025 180.059 27.3025C179.049 27.3025 178.443 27.4288 178.19 27.7066Z" fill="#1C7FF0"/>
<path d="M50.8964 32.6572C51.5783 33.7433 52.7402 35.0819 52.917 34.9304C53.018 34.8293 53.0433 34.8798 52.9422 35.0061C52.8665 35.1577 53.2453 36.1427 53.7757 37.2288C54.3061 38.3148 54.786 39.1231 54.8365 38.9968C54.9123 38.8957 54.9123 38.9463 54.8618 39.1231C54.8113 39.3251 54.9628 40.0071 55.1901 40.6385C56.7055 45.1595 56.8066 52.2821 55.3922 56.9799C55.1901 57.6618 54.887 58.4448 54.7607 58.6974C54.6092 58.9752 54.5334 59.2025 54.5839 59.253C54.786 59.4298 57.337 58.0912 57.1854 57.8639C57.1097 57.7376 57.1854 57.6871 57.3622 57.7376C57.9179 57.9649 61.0498 55.5907 63.1209 53.4186C65.4193 51.0192 67.162 48.443 68.2986 45.8162C69.6625 42.6591 69.6625 42.6843 68.2481 41.4467C66.2528 39.704 63.9038 38.1128 63.6008 38.3148C63.3987 38.4159 63.3734 38.3906 63.4745 38.2138C63.8028 37.6581 57.6148 34.5262 53.5989 33.2129C50.6186 32.2278 50.6438 32.2531 50.8964 32.6572Z" fill="#1C7FF0"/>
<path d="M50.7344 41.0428C49.7746 42.9624 46.8195 46.6499 44.8747 48.3169C40.9851 51.6256 34.9486 54.8838 30.4023 56.0961C29.7204 56.2729 29.0384 56.5255 28.8869 56.677C28.7101 56.8538 28.7859 56.8791 29.089 56.7781C29.3415 56.677 29.4931 56.7023 29.392 56.8538C29.0384 57.4095 34.0646 59.6826 37.2975 60.4151C41.3134 61.2991 47.0721 61.2991 50.5071 60.3899C51.3658 60.1625 51.4416 60.0362 51.972 58.3188C52.2751 57.3085 52.7044 55.3384 52.9065 53.9493C53.5632 49.8829 53.0833 43.4928 51.972 40.8155C51.7952 40.3862 51.6942 39.9063 51.7194 39.7295C51.8204 39.0475 51.4921 39.5021 50.7344 41.0428Z" fill="#1C7FF0"/>
</svg>
